<?xml version="1.0" encoding="iso-8859-1"?>
<!-- Generator: Adobe Illustrator 15.1.0, SVG Export Plug-In . SVG Version: 6.00 Build 0)  -->
<!DOCTYPE svg PUBLIC "-//W3C//DTD SVG 1.1//EN" "http://www.w3.org/Graphics/SVG/1.1/DTD/svg11.dtd">
<svg version="1.1" id="Layer_1" xmlns="http://www.w3.org/2000/svg" xmlns:xlink="http://www.w3.org/1999/xlink" x="0px" y="0px"
	 width="500px" height="150px" viewBox="-555.5 -382 500 150" style="enable-background:new -555.5 -382 500 150;"
	 xml:space="preserve">
<g id="LINE_3_">
	<g id="XMLID_3_">
		<path style="fill:#122337;" d="M-87.208-288.436c4.404,8.423,4.404,18.462,0,26.885c-1.027,2.554-2.54,4.891-4.455,6.876
			c-8.188,8.478-21.702,8.714-30.182,0.52v5.412h-17.128v-68.304h17.128v21.209c1.979-1.916,4.317-3.429,6.876-4.456
			C-104.026-304.685-91.602-299.376-87.208-288.436z M-104.562-267.975c1.79-4.816,1.623-10.129-0.46-14.826
			c-2.08-3.851-6.889-5.288-10.739-3.207c-2.228,1.202-3.747,3.393-4.086,5.897c-0.479,3.462-0.479,6.979,0,10.45
			c0.589,4.335,4.594,7.367,8.93,6.777C-108.024-263.279-105.582-265.242-104.562-267.975z"/>
		<path style="fill:#122337;" d="M-146.237-262.043v13.3c-2.913,1.255-6.133,1.643-9.264,1.124
			c-5.652,0.026-10.689-3.561-12.521-8.908c-3.479,6.188-10.367,9.644-17.401,8.733c-6.404-0.832-11.897-4.959-14.467-10.885
			c-0.449-1.736-0.68-3.516-0.68-5.314v-35.979h17.131v28.743c0,4.029,3.261,7.298,7.292,7.298c4.032,0,7.292-3.269,7.292-7.298
			v-28.743h17.128v34.759c0,2.025,1.638,3.663,3.658,3.663C-147.423-261.55-146.801-261.716-146.237-262.043z"/>
		<path style="fill:#122337;" d="M-211.614-286.555v37.813h-17.13v-29.182c0-4.163-3.373-7.534-7.535-7.534
			c-4.161,0-7.542,3.371-7.542,7.534v29.182h-17.122v-68.304h17.122v21.95c1.638-2.046,3.691-3.718,6.029-4.913
			c9.069-4.626,20.176-1.019,24.797,8.05C-212.093-290.303-211.614-288.442-211.614-286.555z"/>
		<path style="fill:#122337;" d="M-287.031-267.2h18.012c-0.568,2.229-1.415,4.372-2.526,6.391
			c-7.285,13.288-23.964,18.149-37.257,10.864c-13.284-7.29-18.155-23.97-10.864-37.256c5.024-10.573,16.492-16.47,28.008-14.423
			c14.12,2.518,23.526,16.004,21.01,30.125h-34.899c0,5.388,4.371,9.753,9.756,9.753
			C-292.067-261.746-288.673-263.854-287.031-267.2z M-304.755-281.865h16.99c-0.479-4.696-4.663-8.117-9.353-7.646
			C-301.155-289.102-304.354-285.909-304.755-281.865z"/>
		<path style="fill:#122337;" d="M-330.907-285.945v37.202h-17.122v-28.966c0-3.996-3.241-7.238-7.236-7.238
			c-3.995,0-7.23,3.242-7.23,7.238v28.966h-17.128v-28.836c0-4.101-3.317-7.415-7.417-7.415c-4.093,0-7.41,3.314-7.41,7.415v28.836
			h-17.13v-51.229h17.13v4.876c1.067-1.241,2.29-2.345,3.636-3.272c8.748-6.059,20.752-3.88,26.814,4.869
			c5.369-7.306,15.049-9.983,23.41-6.473C-334.9-297.588-331.12-292.112-330.907-285.945z"/>
		<path style="fill:#61C4B1;" d="M-421.216-332.992l-9.264,9.263c3.456,4.614,6.148,9.748,7.972,15.216h-17.052
			c-5.628-11.232-16.098-18.448-27.607-20.378l2.607-15.576c7.266,1.217,14.197,3.914,20.371,7.924
			c1.451,0.936,3.357,0.736,4.578-0.486l7.181-7.174L-421.216-332.992z"/>
		<rect x="-439.631" y="-299.972" style="fill:#122337;" width="17.123" height="51.229"/>
		<path style="fill:#122337;" d="M-448.171-264.923v15.446c-8.693,4.112-19.03,2.377-25.906-4.345
			c-2.935-2.872-4.586-6.798-4.586-10.898v-20.552h-8.366v-14.7h4.71c2.018,0,3.656-1.64,3.656-3.665v-10.365h17.121v14.03h13.371
			v14.7h-13.371v14.569c0,2.374,1.257,4.572,3.297,5.779C-455.136-263.091-451.278-263.091-448.171-264.923z"/>
		<path style="fill:#F5B561;" d="M-453.631-367.438v13.349h-10.929v9.622l-2.607,15.576c-7.652-1.291-15.762-0.242-23.228,3.498
			c-10.629,5.328-17.657,14.979-20.023,25.761l-15.022-5.094l-0.014-0.006c5.134-20.204,21.868-36.418,43.773-39.833v-5.258
			c0-2.359-1.915-4.267-4.273-4.267h-4.093v-13.349h23.206L-453.631-367.438L-453.631-367.438z"/>
		<path style="fill:#EC544D;" d="M-494.635-260.166l-11.309,11.316c-11.026-8.4-18.372-20.736-20.501-34.427
			c-1.153-7.38-0.737-14.646,0.99-21.457l0.014,0.006l15.022,5.094c-1.797,8.179-0.902,16.998,3.143,25.065
			C-504.368-268.759-500.011-263.798-494.635-260.166z"/>
	</g>
</g>
</svg>
