<?xml version="1.0" encoding="iso-8859-1"?>
<!-- Generator: Adobe Illustrator 15.1.0, SVG Export Plug-In . SVG Version: 6.00 Build 0)  -->
<!DOCTYPE svg PUBLIC "-//W3C//DTD SVG 1.1//EN" "http://www.w3.org/Graphics/SVG/1.1/DTD/svg11.dtd">
<svg version="1.1" id="Layer_1" xmlns="http://www.w3.org/2000/svg" xmlns:xlink="http://www.w3.org/1999/xlink" x="0px" y="0px"
	 width="250px" height="250px" viewBox="-529.5 33.75 250 250" style="enable-background:new -529.5 33.75 250 250;"
	 xml:space="preserve">
<g>
	<path style="fill:#61C4B1;" d="M-314.956,116.72l-15.67,15.667c5.846,7.805,10.4,16.488,13.484,25.737h-28.843
		c-9.52-18.999-27.229-31.204-46.696-34.469l4.41-26.347c12.289,2.059,24.014,6.621,34.457,13.403
		c2.454,1.582,5.679,1.245,7.743-0.822l12.146-12.135L-314.956,116.72z"/>
	<path style="fill:#F5B561;" d="M-369.785,58.455v22.579h-18.485v16.274l-4.41,26.347c-12.944-2.184-26.661-0.409-39.289,5.917
		c-17.979,9.013-29.866,25.336-33.868,43.573l-25.41-8.615l-0.023-0.01c8.684-34.174,36.989-61.601,74.041-67.376V88.25
		c0-3.991-3.239-7.217-7.229-7.217h-6.923V58.455h39.253H-369.785z"/>
	<path style="fill:#EC544D;" d="M-439.142,239.902l-19.128,19.143c-18.65-14.209-31.076-35.074-34.677-58.23
		c-1.951-12.482-1.247-24.772,1.675-36.295l0.023,0.01l25.41,8.617c-3.04,13.834-1.526,28.752,5.315,42.396
		C-455.604,225.366-448.234,233.759-439.142,239.902z"/>
</g>
</svg>
