<?xml version="1.0" encoding="iso-8859-1"?>
<!-- Generator: Adobe Illustrator 15.1.0, SVG Export Plug-In . SVG Version: 6.00 Build 0)  -->
<!DOCTYPE svg PUBLIC "-//W3C//DTD SVG 1.1//EN" "http://www.w3.org/Graphics/SVG/1.1/DTD/svg11.dtd">
<svg version="1.1" id="Layer_1" xmlns="http://www.w3.org/2000/svg" xmlns:xlink="http://www.w3.org/1999/xlink" x="0px" y="0px"
	 width="500px" height="150px" viewBox="-555.5 -187 500 150" style="enable-background:new -555.5 -187 500 150;"
	 xml:space="preserve">
<g>
	<path style="fill:#F2F2F2;" d="M-88.028-93.436c4.404,8.423,4.404,18.462,0,26.885c-1.027,2.554-2.54,4.891-4.455,6.876
		c-8.188,8.478-21.702,8.714-30.182,0.52v5.412h-17.128v-68.304h17.128v21.209c1.979-1.916,4.317-3.429,6.876-4.456
		C-104.846-109.685-92.421-104.376-88.028-93.436z M-105.381-72.974c1.79-4.816,1.623-10.129-0.46-14.826
		c-2.08-3.851-6.889-5.288-10.739-3.207c-2.228,1.202-3.747,3.393-4.086,5.897c-0.479,3.462-0.479,6.979,0,10.45
		c0.589,4.335,4.594,7.367,8.93,6.777C-108.844-68.279-106.401-70.242-105.381-72.974z"/>
	<path style="fill:#F2F2F2;" d="M-147.057-67.043v13.3c-2.913,1.255-6.133,1.643-9.264,1.124
		c-5.652,0.026-10.689-3.561-12.521-8.908c-3.479,6.188-10.367,9.644-17.401,8.733c-6.404-0.832-11.897-4.959-14.467-10.885
		c-0.449-1.736-0.68-3.516-0.68-5.314v-35.979h17.131v28.743c0,4.029,3.261,7.298,7.292,7.298c4.032,0,7.292-3.269,7.292-7.298
		v-28.743h17.128v34.759c0,2.025,1.638,3.663,3.658,3.663C-148.243-66.55-147.621-66.716-147.057-67.043z"/>
	<path style="fill:#F2F2F2;" d="M-212.434-91.555v37.813h-17.13v-29.182c0-4.163-3.373-7.534-7.535-7.534
		c-4.161,0-7.542,3.371-7.542,7.534v29.182h-17.122v-68.304h17.122v21.95c1.638-2.046,3.691-3.718,6.029-4.913
		c9.069-4.626,20.176-1.019,24.797,8.05C-212.913-95.303-212.434-93.442-212.434-91.555z"/>
	<path style="fill:#F2F2F2;" d="M-287.851-72.2h18.012c-0.568,2.229-1.415,4.372-2.526,6.391
		c-7.285,13.288-23.964,18.149-37.257,10.864c-13.284-7.29-18.155-23.97-10.864-37.256c5.024-10.573,16.492-16.47,28.008-14.423
		c14.12,2.518,23.526,16.004,21.01,30.125h-34.899c0,5.388,4.371,9.753,9.756,9.753C-292.887-66.746-289.493-68.854-287.851-72.2z
		 M-305.575-86.865h16.99c-0.479-4.696-4.663-8.117-9.353-7.646C-301.975-94.102-305.173-90.909-305.575-86.865z"/>
	<path style="fill:#F2F2F2;" d="M-331.727-90.945v37.202h-17.122v-28.966c0-3.996-3.241-7.238-7.236-7.238
		c-3.995,0-7.23,3.242-7.23,7.238v28.966h-17.128v-28.836c0-4.101-3.317-7.415-7.417-7.415c-4.093,0-7.41,3.314-7.41,7.415v28.836
		h-17.13v-51.229h17.13v4.876c1.067-1.241,2.29-2.345,3.636-3.272c8.748-6.059,20.752-3.88,26.814,4.869
		c5.369-7.306,15.049-9.983,23.41-6.473C-335.72-102.588-331.939-97.112-331.727-90.945z"/>
	<path style="fill:#61C4B1;" d="M-422.036-137.992l-9.264,9.263c3.456,4.614,6.148,9.748,7.972,15.216h-17.052
		c-5.628-11.232-16.098-18.448-27.607-20.378l2.607-15.576c7.266,1.217,14.197,3.914,20.371,7.924
		c1.451,0.936,3.357,0.736,4.578-0.486l7.181-7.174L-422.036-137.992z"/>
	<rect x="-440.451" y="-104.972" style="fill:#F2F2F2;" width="17.123" height="51.229"/>
	<path style="fill:#F2F2F2;" d="M-448.991-69.923v15.446c-8.693,4.112-19.03,2.377-25.906-4.345
		c-2.935-2.872-4.586-6.798-4.586-10.898v-20.552h-8.366v-14.7h4.71c2.018,0,3.656-1.64,3.656-3.665v-10.365h17.121v14.03h13.371
		v14.7h-13.371v14.569c0,2.374,1.257,4.572,3.297,5.779C-455.956-68.091-452.098-68.091-448.991-69.923z"/>
	<path style="fill:#F5B561;" d="M-454.451-172.438v13.349h-10.929v9.622l-2.607,15.576c-7.652-1.291-15.762-0.242-23.228,3.498
		c-10.629,5.328-17.657,14.979-20.023,25.761l-15.023-5.094l-0.013-0.006c5.133-20.204,21.868-36.418,43.773-39.833v-5.258
		c0-2.359-1.915-4.267-4.273-4.267h-4.093v-13.349h23.206L-454.451-172.438L-454.451-172.438z"/>
</g>
<path style="fill:#EC544D;" d="M-496.136-66.096l-11.309,11.316c-11.026-8.4-18.372-20.736-20.501-34.427
	c-1.153-7.38-0.737-14.646,0.991-21.457l0.013,0.006l15.023,5.094c-1.797,8.179-0.902,16.998,3.143,25.065
	C-505.868-74.69-501.512-69.729-496.136-66.096z"/>
</svg>
