<svg version="1.1" viewBox="0.0 0.0 960.0 540.0" fill="none" stroke="none" stroke-linecap="square" stroke-miterlimit="10" xmlns:xlink="http://www.w3.org/1999/xlink" xmlns="http://www.w3.org/2000/svg"><clipPath id="gb828a5b241_0_22.0"><path d="m0 0l960.0 0l0 540.0l-960.0 0l0 -540.0z" clip-rule="nonzero"/></clipPath><g clip-path="url(#gb828a5b241_0_22.0)"><path fill="#ffffff" d="m0 0l960.0 0l0 540.0l-960.0 0z" fill-rule="evenodd"/><path fill="#000000" fill-opacity="0.0" d="m157.66142 97.27594l0 0c0 -9.555733 7.7464447 -17.302185 17.302185 -17.302185l156.16728 0c4.5888367 0 8.989685 1.8228989 12.234497 5.067688c3.2447815 3.2447891 5.067688 7.645668 5.067688 12.234497l0 69.20665c0 9.55574 -7.74646 17.302185 -17.302185 17.302185l-156.16728 0l0 0c-9.55574 0 -17.302185 -7.7464447 -17.302185 -17.302185z" fill-rule="evenodd"/><path stroke="#595959" stroke-width="1.0" stroke-linejoin="round" stroke-linecap="butt" d="m157.66142 97.27594l0 0c0 -9.555733 7.7464447 -17.302185 17.302185 -17.302185l156.16728 0c4.5888367 0 8.989685 1.8228989 12.234497 5.067688c3.2447815 3.2447891 5.067688 7.645668 5.067688 12.234497l0 69.20665c0 9.55574 -7.74646 17.302185 -17.302185 17.302185l-156.16728 0l0 0c-9.55574 0 -17.302185 -7.7464447 -17.302185 -17.302185z" fill-rule="evenodd"/><path fill="#000000" d="m223.769 138.79927l0 -13.265633l-1.59375 0l0 5.7031326l-5.4375 0l0 -5.7031326l-1.59375 0l0 13.265633l1.59375 0l0 -6.125l5.4375 0l0 6.125l1.59375 0zm9.351822 0l1.75 0l0 -0.140625q-0.15625 -0.421875 -0.25 -0.96875q-0.09375 -0.546875 -0.09375 -1.046875l0 -4.578125q0 -0.828125 -0.296875 -1.4375q-0.296875 -0.625 -0.8125 -1.046875q-0.53125 -0.40625 -1.25 -0.609375q-0.71875 -0.203125 -1.5625 -0.203125q-0.921875 0 -1.65625 0.25q-0.71875 0.25 -1.21875 0.65625q-0.5 0.421875 -0.78125 0.953125q-0.265625 0.515625 -0.265625 1.046875l1.6875 0q0 -0.3125 0.140625 -0.59375q0.15625 -0.28125 0.4375 -0.5q0.265625 -0.203125 0.65625 -0.328125q0.40625 -0.140625 0.90625 -0.140625q0.546875 0 0.96875 0.140625q0.4375 0.140625 0.734375 0.390625q0.296875 0.25 0.453125 0.609375q0.171875 0.34375 0.171875 0.796875l0 0.78125l-1.828125 0q-1.03125 0 -1.875 0.203125q-0.828125 0.1875 -1.421875 0.59375q-0.59375 0.40625 -0.921875 1.015625q-0.3125 0.609375 -0.3125 1.421875q0 0.625 0.234375 1.15625q0.25 0.53125 0.6875 0.90625q0.4375 0.40625 1.0625 0.640625q0.640625 0.21875 1.4375 0.21875q0.46875 0 0.890625 -0.109375q0.4375 -0.09375 0.828125 -0.265625q0.375 -0.171875 0.6875 -0.390625q0.3125 -0.234375 0.5625 -0.5q0.03125 0.3125 0.09375 0.609375q0.0625 0.28125 0.15625 0.46875zm-2.984375 -1.28125q-0.484375 0 -0.859375 -0.125q-0.375 -0.140625 -0.625 -0.359375q-0.234375 -0.21875 -0.359375 -0.53125q-0.125 -0.3125 -0.125 -0.671875q0 -0.390625 0.140625 -0.6875q0.140625 -0.296875 0.40625 -0.515625q0.390625 -0.3125 1.03125 -0.453125q0.65625 -0.15625 1.53125 -0.15625l1.5625 0l0 2.0q-0.140625 0.28125 -0.40625 0.5625q-0.25 0.265625 -0.59375 0.46875q-0.34375 0.203125 -0.78125 0.34375q-0.421875 0.125 -0.921875 0.125zm14.164322 -8.75q-1.078125 0 -1.921875 0.46875q-0.84375 0.46875 -1.4375 1.265625l-0.015625 -0.234375l-0.078125 -1.328125l-1.59375 0l0 9.859375l1.6875 0l0 -6.328125q0.171875 -0.453125 0.421875 -0.8125q0.25 -0.375 0.578125 -0.625q0.375 -0.296875 0.875 -0.4375q0.5 -0.15625 1.125 -0.15625q0.484375 0 0.921875 0.046875q0.453125 0.046875 0.9375 0.15625l0.234375 -1.640625q-0.265625 -0.109375 -0.765625 -0.171875q-0.5 -0.0625 -0.96875 -0.0625zm8.101822 10.03125l1.28125 0l4.015625 -9.859375l-1.71875 0l-2.765625 7.4375l-0.15625 0.609375l-0.15625 -0.609375l-2.828125 -7.4375l-1.734375 0l4.0625 9.859375zm12.179932 0.1875q1.4375 0 2.421875 -0.578125q0.984375 -0.578125 1.46875 -1.328125l-1.03125 -0.796875q-0.46875 0.59375 -1.171875 0.96875q-0.6875 0.359375 -1.59375 0.359375q-0.6875 0 -1.25 -0.25q-0.5625 -0.265625 -0.96875 -0.71875q-0.390625 -0.40625 -0.609375 -0.953125q-0.21875 -0.546875 -0.28125 -1.265625l0 -0.078125l7.03125 0l0 -0.75q0 -1.03125 -0.265625 -1.90625q-0.25 -0.890625 -0.78125 -1.546875q-0.53125 -0.640625 -1.328125 -1.0q-0.796875 -0.375 -1.859375 -0.375q-0.84375 0 -1.65625 0.34375q-0.796875 0.34375 -1.4375 0.984375q-0.625 0.65625 -1.015625 1.609375q-0.375 0.9375 -0.375 2.125l0 0.390625q0 1.03125 0.34375 1.90625q0.34375 0.875 0.96875 1.5q0.609375 0.640625 1.484375 1.0q0.875 0.359375 1.90625 0.359375zm-0.21875 -8.84375q0.65625 0 1.125 0.234375q0.46875 0.234375 0.765625 0.625q0.3125 0.375 0.484375 0.90625q0.171875 0.515625 0.171875 0.984375l0 0.078125l-5.296875 0q0.09375 -0.6875 0.34375 -1.203125q0.265625 -0.53125 0.625 -0.890625q0.359375 -0.359375 0.8125 -0.546875q0.453125 -0.1875 0.96875 -0.1875zm13.617462 6.046875q0 0.234375 -0.09375 0.453125q-0.09375 0.203125 -0.265625 0.375q-0.28125 0.28125 -0.78125 0.4375q-0.5 0.15625 -1.171875 0.15625q-0.4375 0 -0.875 -0.078125q-0.4375 -0.09375 -0.796875 -0.3125q-0.359375 -0.21875 -0.609375 -0.578125q-0.234375 -0.359375 -0.265625 -0.875l-1.6875 0q0 0.625 0.28125 1.21875q0.296875 0.578125 0.84375 1.015625q0.53125 0.4375 1.3125 0.71875q0.78125 0.265625 1.796875 0.265625q0.875 0 1.609375 -0.203125q0.734375 -0.21875 1.265625 -0.609375q0.53125 -0.375 0.8125 -0.90625q0.296875 -0.546875 0.296875 -1.203125q0 -0.609375 -0.265625 -1.0625q-0.25 -0.46875 -0.734375 -0.828125q-0.5 -0.34375 -1.21875 -0.59375q-0.71875 -0.25 -1.625 -0.453125q-0.6875 -0.125 -1.140625 -0.265625q-0.453125 -0.15625 -0.71875 -0.34375q-0.28125 -0.171875 -0.390625 -0.40625q-0.109375 -0.234375 -0.109375 -0.515625q0 -0.28125 0.140625 -0.546875q0.140625 -0.265625 0.40625 -0.46875q0.265625 -0.203125 0.671875 -0.3125q0.40625 -0.125 0.953125 -0.125q0.515625 0 0.921875 0.15625q0.421875 0.140625 0.71875 0.375q0.28125 0.234375 0.4375 0.546875q0.171875 0.296875 0.171875 0.625l1.6875 0q0 -0.65625 -0.28125 -1.21875q-0.265625 -0.5625 -0.78125 -0.96875q-0.515625 -0.421875 -1.25 -0.65625q-0.71875 -0.234375 -1.625 -0.234375q-0.859375 0 -1.5625 0.234375q-0.703125 0.21875 -1.21875 0.609375q-0.5 0.390625 -0.78125 0.921875q-0.28125 0.515625 -0.28125 1.109375q0 0.609375 0.265625 1.078125q0.28125 0.453125 0.78125 0.796875q0.484375 0.34375 1.171875 0.59375q0.703125 0.234375 1.5625 0.421875q0.6875 0.125 1.140625 0.296875q0.46875 0.171875 0.75 0.375q0.28125 0.203125 0.40625 0.4375q0.125 0.234375 0.125 0.546875zm8.633057 -9.640633l-1.703125 0l0 2.3906326l-2.578125 0l0 1.3125l2.578125 0l0 5.34375q0 0.921875 0.234375 1.5625q0.25 0.640625 0.671875 1.046875q0.421875 0.40625 0.984375 0.59375q0.578125 0.1875 1.234375 0.1875q0.390625 0 0.78125 -0.046875q0.40625 -0.03125 0.75 -0.109375q0.359375 -0.0625 0.65625 -0.15625q0.296875 -0.09375 0.5156555 -0.21875l-0.23440552 -1.203125q-0.15625 0.046875 -0.40625 0.09375q-0.234375 0.046875 -0.515625 0.09375q-0.28125 0.046875 -0.578125 0.078125q-0.28125 0.03125 -0.546875 0.03125q-0.375 0 -0.71875 -0.09375q-0.328125 -0.09375 -0.578125 -0.3125q-0.265625 -0.21875 -0.40625 -0.59375q-0.140625 -0.375 -0.140625 -0.953125l0 -5.34375l3.75 0l0 -1.3125l-3.75 0l0 -2.3906326z" fill-rule="nonzero"/><path fill="#000000" fill-opacity="0.0" d="m381.49545 97.27594l0 0c0 -9.555733 7.7464294 -17.302185 17.302155 -17.302185l156.1673 0c4.588806 0 8.989685 1.8228989 12.234497 5.067688c3.244812 3.2447891 5.067688 7.645668 5.067688 12.234497l0 69.20665c0 9.55574 -7.74646 17.302185 -17.302185 17.302185l-156.1673 0l0 0c-9.555725 0 -17.302155 -7.7464447 -17.302155 -17.302185z" fill-rule="evenodd"/><path stroke="#595959" stroke-width="1.0" stroke-linejoin="round" stroke-linecap="butt" d="m381.49545 97.27594l0 0c0 -9.555733 7.7464294 -17.302185 17.302155 -17.302185l156.1673 0c4.588806 0 8.989685 1.8228989 12.234497 5.067688c3.244812 3.2447891 5.067688 7.645668 5.067688 12.234497l0 69.20665c0 9.55574 -7.74646 17.302185 -17.302185 17.302185l-156.1673 0l0 0c-9.555725 0 -17.302155 -7.7464447 -17.302155 -17.302185z" fill-rule="evenodd"/><path fill="#000000" d="m442.27084 134.8149l-1.6875 0q-0.078125 0.59375 -0.28125 1.109375q-0.203125 0.515625 -0.53125 0.890625q-0.34375 0.375 -0.828125 0.59375q-0.484375 0.203125 -1.15625 0.203125q-0.609375 0 -1.0625 -0.1875q-0.453125 -0.203125 -0.796875 -0.546875q-0.328125 -0.34375 -0.546875 -0.78125q-0.21875 -0.453125 -0.359375 -0.953125q-0.140625 -0.5 -0.203125 -1.015625q-0.046875 -0.53125 -0.046875 -1.03125l0 -1.859375q0 -0.5 0.046875 -1.015625q0.0625 -0.53125 0.203125 -1.03125q0.140625 -0.5 0.359375 -0.9375q0.21875 -0.45313263 0.5625 -0.7968826q0.328125 -0.328125 0.78125 -0.515625q0.46875 -0.203125 1.0625 -0.203125q0.671875 0 1.15625 0.21875q0.484375 0.21875 0.828125 0.609375q0.328125 0.390625 0.53125 0.9218826q0.203125 0.515625 0.28125 1.109375l1.6875 0q-0.109375 -0.9375 -0.453125 -1.7187576q-0.34375 -0.796875 -0.90625 -1.359375q-0.5625 -0.546875 -1.34375 -0.859375q-0.78125 -0.3125 -1.78125 -0.3125q-0.828125 0 -1.5 0.234375q-0.65625 0.234375 -1.171875 0.640625q-0.53125 0.421875 -0.90625 0.984375q-0.375 0.546875 -0.625 1.2031326q-0.25 0.65625 -0.375 1.375q-0.125 0.71875 -0.140625 1.46875l0 1.84375q0.015625 0.734375 0.140625 1.453125q0.125 0.71875 0.375 1.375q0.25 0.65625 0.625 1.21875q0.375 0.546875 0.90625 0.96875q0.515625 0.40625 1.1875 0.640625q0.671875 0.234375 1.484375 0.234375q0.96875 0 1.734375 -0.296875q0.78125 -0.3125 1.359375 -0.875q0.5625 -0.546875 0.921875 -1.3125q0.359375 -0.765625 0.46875 -1.6875zm2.8674622 -10.015633l0 1.46875l3.359375 0l0 11.078133l-3.359375 0l0 1.453125l8.265625 0l0 -1.453125l-3.21875 0l0 -12.546883l-5.046875 0zm10.461182 8.984383l0 0.203125q0 1.0625 0.3125 1.96875q0.3125 0.90625 0.890625 1.59375q0.578125 0.671875 1.40625 1.0625q0.84375 0.375 1.890625 0.375q1.03125 0 1.859375 -0.375q0.828125 -0.390625 1.40625 -1.0625q0.578125 -0.6875 0.890625 -1.59375q0.3125 -0.90625 0.3125 -1.96875l0 -0.203125q0 -1.0625 -0.3125 -1.984375q-0.3125 -0.921875 -0.890625 -1.59375q-0.578125 -0.671875 -1.421875 -1.046875q-0.828125 -0.390625 -1.875 -0.390625q-1.03125 0 -1.859375 0.390625q-0.828125 0.375 -1.40625 1.046875q-0.578125 0.671875 -0.890625 1.59375q-0.3125 0.921875 -0.3125 1.984375zm1.6875 0.203125l0 -0.203125q0 -0.71875 0.171875 -1.375q0.171875 -0.671875 0.53125 -1.171875q0.34375 -0.5 0.859375 -0.796875q0.515625 -0.296875 1.21875 -0.296875q0.703125 0 1.21875 0.296875q0.53125 0.296875 0.890625 0.796875q0.34375 0.5 0.515625 1.171875q0.1875 0.65625 0.1875 1.375l0 0.203125q0 0.71875 -0.171875 1.390625q-0.171875 0.65625 -0.515625 1.15625q-0.359375 0.5 -0.890625 0.796875q-0.515625 0.28125 -1.203125 0.28125q-0.703125 0 -1.234375 -0.28125q-0.53125 -0.296875 -0.875 -0.796875q-0.359375 -0.5 -0.53125 -1.15625q-0.171875 -0.671875 -0.171875 -1.390625zm14.179962 3.625q-0.796875 0 -1.328125 -0.3125q-0.53125 -0.3125 -0.84375 -0.828125q-0.328125 -0.5 -0.46875 -1.125q-0.140625 -0.640625 -0.140625 -1.28125l0 -0.390625q0 -0.625 0.140625 -1.25q0.140625 -0.640625 0.46875 -1.15625q0.328125 -0.5 0.859375 -0.8125q0.53125 -0.3125 1.3125 -0.3125q0.515625 0 0.953125 0.171875q0.4375 0.171875 0.765625 0.484375q0.3125 0.296875 0.5 0.6875q0.1875 0.390625 0.203125 0.84375l1.59375 0q0 -0.75 -0.3125 -1.40625q-0.296875 -0.65625 -0.828125 -1.140625q-0.53125 -0.46875 -1.265625 -0.734375q-0.734375 -0.28125 -1.609375 -0.28125q-1.109375 0 -1.953125 0.40625q-0.84375 0.390625 -1.390625 1.0625q-0.5625 0.6875 -0.859375 1.578125q-0.28125 0.890625 -0.28125 1.859375l0 0.390625q0 0.984375 0.28125 1.875q0.296875 0.875 0.859375 1.5625q0.546875 0.671875 1.390625 1.078125q0.84375 0.40625 1.953125 0.40625q0.78125 0 1.5 -0.265625q0.71875 -0.28125 1.28125 -0.734375q0.5625 -0.4375 0.890625 -1.03125q0.328125 -0.609375 0.34375 -1.265625l-1.59375 0q-0.015625 0.40625 -0.21875 0.765625q-0.203125 0.34375 -0.546875 0.609375q-0.328125 0.265625 -0.765625 0.40625q-0.4375 0.140625 -0.890625 0.140625zm9.945557 -3.40625l3.625 4.59375l2.140625 0l-4.609375 -5.75l4.0 -4.109375l-2.046875 0l-3.234375 3.25l-1.109375 1.1875l0 -8.578133l-1.6875 0l0 14.000008l1.6875 0l0 -3.40625l1.234375 -1.1875zm8.508087 -5.265625l0 1.46875l3.359375 0l0 6.9375l-3.359375 0l0 1.453125l8.265625 0l0 -1.453125l-3.21875 0l0 -8.40625l-5.046875 0zm3.140625 -2.5781326q0 0.40625 0.25 0.6875q0.25 0.265625 0.765625 0.265625q0.5 0 0.75 -0.265625q0.25 -0.28125 0.25 -0.6875q0 -0.234375 -0.078125 -0.421875q-0.0625 -0.1875 -0.203125 -0.328125q-0.125 -0.109375 -0.3125 -0.171875q-0.171875 -0.078125 -0.40625 -0.078125q-0.25 0 -0.4375 0.078125q-0.171875 0.0625 -0.296875 0.171875q-0.140625 0.140625 -0.21875 0.34375q-0.0625 0.1875 -0.0625 0.40625zm10.304932 12.437508l1.703125 0l0 -8.546875l3.796875 0l0 -1.3125l-3.796875 0l0 -0.6875q0 -0.6250076 0.15625 -1.0781326q0.15625 -0.46875 0.46875 -0.765625q0.296875 -0.28125 0.734375 -0.421875q0.4375 -0.140625 1.015625 -0.140625q0.5625 0 1.0625 0.09375q0.5 0.09375 0.875 0.21875l0.1875 -1.390625q-0.234375 -0.0625 -0.46875 -0.109375q-0.21875 -0.046875 -0.453125 -0.09375q-0.34375 -0.0625 -0.703125 -0.109375q-0.34375 -0.046875 -0.703125 -0.046875q-0.875 0 -1.59375 0.25q-0.703125 0.25 -1.203125 0.734375q-0.515625 0.484375 -0.796875 1.203125q-0.28125 0.703125 -0.28125 1.6562576l0 0.6875l-2.703125 0l0 1.3125l2.703125 0l0 8.546875zm9.476807 3.984375q0.671875 0 1.171875 -0.25q0.515625 -0.25 0.90625 -0.609375q0.375 -0.359375 0.640625 -0.796875q0.265625 -0.421875 0.4375 -0.8125l5.015625 -11.375l-1.890625 0l-2.546875 6.390625l-0.46875 1.15625l-0.4375 -1.1875l-2.703125 -6.359375l-1.8749695 0l4.2343445 9.390625l-0.671875 1.3125q-0.09375 0.1875 -0.25 0.46875q-0.15625 0.28125 -0.375 0.546875q-0.234375 0.265625 -0.515625 0.453125q-0.28125 0.1875 -0.640625 0.1875q-0.125 0 -0.34375 -0.015625q-0.21875 0 -0.453125 -0.03125l-0.26559448 1.375q0.15625 0.046875 0.46871948 0.09375q0.328125 0.0625 0.5625 0.0625z" fill-rule="nonzero"/><path fill="#000000" fill-opacity="0.0" d="m605.32947 97.27594l0 0c0 -9.555733 7.74646 -17.302185 17.302185 -17.302185l156.1673 0c4.588806 0 8.989685 1.8228989 12.234497 5.067688c3.244751 3.2447891 5.067688 7.645668 5.067688 12.234497l0 69.20665c0 9.55574 -7.74646 17.302185 -17.302185 17.302185l-156.1673 0l0 0c-9.555725 0 -17.302185 -7.7464447 -17.302185 -17.302185z" fill-rule="evenodd"/><path stroke="#595959" stroke-width="1.0" stroke-linejoin="round" stroke-linecap="butt" d="m605.32947 97.27594l0 0c0 -9.555733 7.74646 -17.302185 17.302185 -17.302185l156.1673 0c4.588806 0 8.989685 1.8228989 12.234497 5.067688c3.244751 3.2447891 5.067688 7.645668 5.067688 12.234497l0 69.20665c0 9.55574 -7.74646 17.302185 -17.302185 17.302185l-156.1673 0l0 0c-9.555725 0 -17.302185 -7.7464447 -17.302185 -17.302185z" fill-rule="evenodd"/><path fill="#000000" d="m683.2576 126.97114l0 -1.4375l-9.84375 0l0 1.4375l4.109375 0l0 11.828133l1.640625 0l0 -11.828133l4.09375 0zm1.7736816 6.8125076l0 0.203125q0 1.0625 0.3125 1.96875q0.3125 0.90625 0.890625 1.59375q0.578125 0.671875 1.40625 1.0625q0.84375 0.375 1.890625 0.375q1.03125 0 1.859375 -0.375q0.828125 -0.390625 1.40625 -1.0625q0.578125 -0.6875 0.890625 -1.59375q0.3125 -0.90625 0.3125 -1.96875l0 -0.203125q0 -1.0625 -0.3125 -1.984375q-0.3125 -0.921875 -0.890625 -1.59375q-0.578125 -0.671875 -1.421875 -1.046875q-0.828125 -0.390625 -1.875 -0.390625q-1.03125 0 -1.859375 0.390625q-0.828125 0.375 -1.40625 1.046875q-0.578125 0.671875 -0.890625 1.59375q-0.3125 0.921875 -0.3125 1.984375zm1.6875 0.203125l0 -0.203125q0 -0.71875 0.171875 -1.375q0.171875 -0.671875 0.53125 -1.171875q0.34375 -0.5 0.859375 -0.796875q0.515625 -0.296875 1.21875 -0.296875q0.703125 0 1.21875 0.296875q0.53125 0.296875 0.890625 0.796875q0.34375 0.5 0.515625 1.171875q0.1875 0.65625 0.1875 1.375l0 0.203125q0 0.71875 -0.171875 1.390625q-0.171875 0.65625 -0.515625 1.15625q-0.359375 0.5 -0.890625 0.796875q-0.515625 0.28125 -1.203125 0.28125q-0.703125 0 -1.234375 -0.28125q-0.53125 -0.296875 -0.875 -0.796875q-0.359375 -0.5 -0.53125 -1.15625q-0.171875 -0.671875 -0.171875 -1.390625zm9.679932 -0.203125l0 0.203125q0 1.046875 0.265625 1.96875q0.28125 0.90625 0.78125 1.59375q0.5 0.671875 1.234375 1.0625q0.734375 0.375 1.625 0.375q0.546875 0 1.0 -0.125q0.46875 -0.109375 0.859375 -0.3125q0.234375 -0.140625 0.453125 -0.3125q0.21875 -0.1875 0.40625 -0.40625l0 0.84375q0 0.640625 -0.1875 1.125q-0.171875 0.5 -0.515625 0.828125q-0.34375 0.328125 -0.828125 0.5q-0.484375 0.171875 -1.078125 0.171875q-0.34375 0 -0.6875 -0.0625q-0.328125 -0.0625 -0.671875 -0.21875q-0.328125 -0.15625 -0.65625 -0.421875q-0.328125 -0.25 -0.640625 -0.625l-0.875 1.0q0.34375 0.484375 0.8125 0.8125q0.46875 0.328125 0.96875 0.515625q0.5 0.203125 0.984375 0.28125q0.5 0.09375 0.890625 0.09375q0.921875 0 1.6875 -0.28125q0.765625 -0.265625 1.328125 -0.78125q0.546875 -0.53125 0.84375 -1.296875q0.3125 -0.75 0.3125 -1.71875l0 -9.65625l-1.53125 0l-0.078125 1.078125q-0.171875 -0.21875 -0.375 -0.390625q-0.1875 -0.1875 -0.40625 -0.328125q-0.40625 -0.265625 -0.90625 -0.390625q-0.5 -0.140625 -1.09375 -0.140625q-0.90625 0 -1.640625 0.375q-0.734375 0.359375 -1.234375 1.03125q-0.515625 0.65625 -0.78125 1.59375q-0.265625 0.921875 -0.265625 2.015625zm1.671875 0.203125l0 -0.203125q0 -0.71875 0.15625 -1.359375q0.15625 -0.65625 0.484375 -1.15625q0.3125 -0.5 0.8125 -0.78125q0.515625 -0.296875 1.21875 -0.296875q0.421875 0 0.765625 0.109375q0.34375 0.09375 0.625 0.28125q0.296875 0.1875 0.515625 0.453125q0.21875 0.25 0.375 0.5625l0 4.515625q-0.15625 0.3125 -0.375 0.578125q-0.21875 0.265625 -0.5 0.453125q-0.28125 0.203125 -0.640625 0.3125q-0.34375 0.09375 -0.78125 0.09375q-0.703125 0 -1.203125 -0.28125q-0.5 -0.296875 -0.8125 -0.78125q-0.328125 -0.5 -0.484375 -1.140625q-0.15625 -0.640625 -0.15625 -1.359375zm9.523682 -0.203125l0 0.203125q0 1.046875 0.265625 1.96875q0.28125 0.90625 0.78125 1.59375q0.5 0.671875 1.234375 1.0625q0.734375 0.375 1.625 0.375q0.546875 0 1.0 -0.125q0.46875 -0.109375 0.859375 -0.3125q0.234375 -0.140625 0.453125 -0.3125q0.21875 -0.1875 0.40625 -0.40625l0 0.84375q0 0.640625 -0.1875 1.125q-0.171875 0.5 -0.515625 0.828125q-0.34375 0.328125 -0.828125 0.5q-0.484375 0.171875 -1.078125 0.171875q-0.34375 0 -0.6875 -0.0625q-0.328125 -0.0625 -0.671875 -0.21875q-0.328125 -0.15625 -0.65625 -0.421875q-0.328125 -0.25 -0.640625 -0.625l-0.875 1.0q0.34375 0.484375 0.8125 0.8125q0.46875 0.328125 0.96875 0.515625q0.5 0.203125 0.984375 0.28125q0.5 0.09375 0.890625 0.09375q0.921875 0 1.6875 -0.28125q0.765625 -0.265625 1.328125 -0.78125q0.546875 -0.53125 0.84375 -1.296875q0.3125 -0.75 0.3125 -1.71875l0 -9.65625l-1.53125 0l-0.078125 1.078125q-0.171875 -0.21875 -0.375 -0.390625q-0.1875 -0.1875 -0.40625 -0.328125q-0.40625 -0.265625 -0.90625 -0.390625q-0.5 -0.140625 -1.09375 -0.140625q-0.90625 0 -1.640625 0.375q-0.734375 0.359375 -1.234375 1.03125q-0.515625 0.65625 -0.78125 1.59375q-0.265625 0.921875 -0.265625 2.015625zm1.671875 0.203125l0 -0.203125q0 -0.71875 0.15625 -1.359375q0.15625 -0.65625 0.484375 -1.15625q0.3125 -0.5 0.8125 -0.78125q0.515625 -0.296875 1.21875 -0.296875q0.421875 0 0.765625 0.109375q0.34375 0.09375 0.625 0.28125q0.296875 0.1875 0.515625 0.453125q0.21875 0.25 0.375 0.5625l0 4.515625q-0.15625 0.3125 -0.375 0.578125q-0.21875 0.265625 -0.5 0.453125q-0.28125 0.203125 -0.640625 0.3125q-0.34375 0.09375 -0.78125 0.09375q-0.703125 0 -1.203125 -0.28125q-0.5 -0.296875 -0.8125 -0.78125q-0.328125 -0.5 -0.484375 -1.140625q-0.15625 -0.640625 -0.15625 -1.359375zm10.086243 -9.187508l0 1.46875l3.359375 0l0 11.078133l-3.359375 0l0 1.453125l8.265625 0l0 -1.453125l-3.21875 0l0 -12.546883l-5.046875 0z" fill-rule="nonzero"/><path fill="#000000" fill-opacity="0.0" d="m381.49545 357.13495l0 0c0 -9.555725 7.7464294 -17.302185 17.302155 -17.302185l156.1673 0c4.588806 0 8.989685 1.8229065 12.234497 5.0677185c3.244812 3.2447815 5.067688 7.6456604 5.067688 12.234467l0 69.206665c0 9.555725 -7.74646 17.302185 -17.302185 17.302185l-156.1673 0l0 0c-9.555725 0 -17.302155 -7.74646 -17.302155 -17.302185z" fill-rule="evenodd"/><path stroke="#595959" stroke-width="1.0" stroke-linejoin="round" stroke-linecap="butt" d="m381.49545 357.13495l0 0c0 -9.555725 7.7464294 -17.302185 17.302155 -17.302185l156.1673 0c4.588806 0 8.989685 1.8229065 12.234497 5.0677185c3.244812 3.2447815 5.067688 7.6456604 5.067688 12.234467l0 69.206665c0 9.555725 -7.74646 17.302185 -17.302185 17.302185l-156.1673 0l0 0c-9.555725 0 -17.302155 -7.74646 -17.302155 -17.302185z" fill-rule="evenodd"/><path fill="#000000" d="m448.22803 386.83017l0 -1.4375l-9.84375 0l0 1.4375l4.109375 0l0 11.828125l1.640625 0l0 -11.828125l4.09375 0zm2.5080566 1.96875l0 1.46875l3.359375 0l0 6.9375l-3.359375 0l0 1.453125l8.265625 0l0 -1.453125l-3.21875 0l0 -8.40625l-5.046875 0zm3.140625 -2.578125q0 0.40625 0.25 0.6875q0.25 0.265625 0.765625 0.265625q0.5 0 0.75 -0.265625q0.25 -0.28125 0.25 -0.6875q0 -0.234375 -0.078125 -0.421875q-0.0625 -0.1875 -0.203125 -0.328125q-0.125 -0.109375 -0.3125 -0.171875q-0.171875 -0.078125 -0.40625 -0.078125q-0.25 0 -0.4375 0.078125q-0.171875 0.0625 -0.296875 0.171875q-0.140625 0.140625 -0.21875 0.34375q-0.0625 0.1875 -0.0625 0.40625zm8.570587 2.578125l-1.515625 0l0 9.859375l1.609375 0l0 -7.84375q0.046875 -0.140625 0.125 -0.265625q0.09375 -0.140625 0.21875 -0.234375q0.15625 -0.125 0.375 -0.1875q0.21875 -0.078125 0.53125 -0.078125q0.265625 0 0.46875 0.078125q0.203125 0.0625 0.34375 0.203125q0.15625 0.15625 0.21875 0.390625q0.0625 0.234375 0.0625 0.546875l0 7.390625l1.609375 0l0 -7.375q0 -0.0625 0 -0.09375q0 -0.046875 0 -0.09375q0.03125 -0.21875 0.109375 -0.40625q0.078125 -0.1875 0.21875 -0.34375q0.15625 -0.125 0.375 -0.203125q0.21875 -0.09375 0.515625 -0.09375q0.28125 0 0.484375 0.078125q0.21875 0.0625 0.375 0.21875q0.140625 0.15625 0.203125 0.390625q0.078125 0.234375 0.078125 0.546875l0 7.375l1.59375 0l0 -7.359375q0 -0.71875 -0.171875 -1.234375q-0.15625 -0.53125 -0.453125 -0.859375q-0.28125 -0.28125 -0.703125 -0.421875q-0.40625 -0.15625 -0.921875 -0.15625q-0.359375 0 -0.6875 0.09375q-0.3125 0.09375 -0.5625 0.25q-0.203125 0.125 -0.375 0.3125q-0.171875 0.1875 -0.296875 0.390625q-0.109375 -0.21875 -0.25 -0.40625q-0.140625 -0.1875 -0.3125 -0.3125q-0.234375 -0.15625 -0.546875 -0.234375q-0.3125 -0.09375 -0.703125 -0.09375q-0.6875 0 -1.1875 0.296875q-0.484375 0.28125 -0.78125 0.8125l-0.046875 -0.9375zm14.773682 10.046875q1.4375 0 2.421875 -0.578125q0.984375 -0.578125 1.46875 -1.328125l-1.03125 -0.796875q-0.46875 0.59375 -1.171875 0.96875q-0.6875 0.359375 -1.59375 0.359375q-0.6875 0 -1.25 -0.25q-0.5625 -0.265625 -0.96875 -0.71875q-0.390625 -0.40625 -0.609375 -0.953125q-0.21875 -0.546875 -0.28125 -1.265625l0 -0.078125l7.03125 0l0 -0.75q0 -1.03125 -0.265625 -1.90625q-0.25 -0.890625 -0.78125 -1.546875q-0.53125 -0.640625 -1.328125 -1.0q-0.796875 -0.375 -1.859375 -0.375q-0.84375 0 -1.65625 0.34375q-0.796875 0.34375 -1.4375 0.984375q-0.625 0.65625 -1.015625 1.609375q-0.375 0.9375 -0.375 2.125l0 0.390625q0 1.03125 0.34375 1.90625q0.34375 0.875 0.96875 1.5q0.609375 0.640625 1.484375 1.0q0.875 0.359375 1.90625 0.359375zm-0.21875 -8.84375q0.65625 0 1.125 0.234375q0.46875 0.234375 0.765625 0.625q0.3125 0.375 0.484375 0.90625q0.171875 0.515625 0.171875 0.984375l0 0.078125l-5.296875 0q0.09375 -0.6875 0.34375 -1.203125q0.265625 -0.53125 0.625 -0.890625q0.359375 -0.359375 0.8125 -0.546875q0.453125 -0.1875 0.96875 -0.1875zm8.742462 0.265625l0 -5.609375l-1.6875 0l0 14.0l1.6875 0l0 -7.15625q0.1875 -0.296875 0.421875 -0.53125q0.234375 -0.25 0.5 -0.421875q0.34375 -0.25 0.75 -0.375q0.421875 -0.125 0.875 -0.125q0.5625 -0.015625 0.984375 0.15625q0.421875 0.15625 0.703125 0.46875q0.265625 0.296875 0.40625 0.734375q0.140625 0.4375 0.140625 1.03125l0 6.21875l1.6875 0l0 -6.203125q0 -1.0 -0.25 -1.71875q-0.234375 -0.71875 -0.6875 -1.203125q-0.4375 -0.46875 -1.078125 -0.6875q-0.625 -0.21875 -1.40625 -0.21875q-0.59375 0 -1.125 0.171875q-0.515625 0.15625 -0.953125 0.484375q-0.265625 0.1875 -0.515625 0.4375q-0.25 0.25 -0.453125 0.546875zm16.008057 8.390625l1.53125 0l0 -9.859375l-1.6875 0l0 7.078125q-0.140625 0.3125 -0.34375 0.578125q-0.203125 0.265625 -0.484375 0.46875q-0.328125 0.234375 -0.78125 0.375q-0.4375 0.125 -1.0 0.125q-0.484375 0 -0.859375 -0.125q-0.359375 -0.140625 -0.625 -0.453125q-0.25 -0.3125 -0.375 -0.828125q-0.125 -0.53125 -0.125 -1.34375l0 -5.875l-1.6875 0l0 5.859375q0 1.109375 0.234375 1.890625q0.25 0.78125 0.6875 1.296875q0.453125 0.515625 1.078125 0.765625q0.625 0.234375 1.40625 0.234375q0.96875 0 1.703125 -0.40625q0.734375 -0.40625 1.234375 -1.140625l0.09375 1.359375zm13.054932 -4.8125l0 -0.203125q0 -0.765625 -0.125 -1.453125q-0.125 -0.703125 -0.375 -1.28125q-0.234375 -0.515625 -0.546875 -0.921875q-0.3125 -0.421875 -0.703125 -0.703125q-0.4375 -0.3125 -0.984375 -0.484375q-0.5312195 -0.171875 -1.1562195 -0.171875q-0.515625 0 -0.953125 0.09375q-0.4375 0.09375 -0.796875 0.296875q-0.296875 0.15625 -0.5625 0.375q-0.25 0.203125 -0.453125 0.46875l0 -5.203125l-1.6875 0l0 14.0l1.546875 0l0.078125 -1.125q0.171875 0.21875 0.34375 0.390625q0.1875 0.171875 0.390625 0.3125q0.421875 0.296875 0.9375 0.453125q0.53125 0.15625 1.171875 0.15625q0.546875 0 1.015625 -0.140625q0.48434448 -0.140625 0.8905945 -0.390625q0.5625 -0.34375 0.953125 -0.890625q0.390625 -0.546875 0.640625 -1.21875q0.1875 -0.53125 0.28125 -1.125q0.09375 -0.59375 0.09375 -1.234375zm-1.6875 -0.203125l0 0.203125q0 0.4375 -0.0625 0.859375q-0.046875 0.40625 -0.15625 0.78125q-0.15625 0.46875 -0.40625 0.875q-0.234375 0.390625 -0.6093445 0.640625q-0.265625 0.203125 -0.609375 0.3125q-0.34375 0.09375 -0.765625 0.09375q-0.4375 0 -0.8125 -0.109375q-0.359375 -0.109375 -0.640625 -0.328125q-0.296875 -0.203125 -0.53125 -0.484375q-0.21875 -0.28125 -0.375 -0.609375l0 -4.3125q0.15625 -0.328125 0.375 -0.59375q0.21875 -0.28125 0.515625 -0.5q0.28125 -0.1875 0.640625 -0.296875q0.375 -0.125 0.8125 -0.125q0.390625 0 0.71875 0.09375q0.328125 0.09375 0.59375 0.25q0.39059448 0.234375 0.6562195 0.640625q0.265625 0.390625 0.421875 0.875q0.125 0.390625 0.171875 0.84375q0.0625 0.4375 0.0625 0.890625z" fill-rule="nonzero"/><path fill="#000000" fill-opacity="0.0" d="m265.8617 201.04524l207.87402 126.83464" fill-rule="evenodd"/><path stroke="#595959" stroke-width="1.0" stroke-linejoin="round" stroke-linecap="butt" d="m265.8617 201.04526l202.75214 123.70953" fill-rule="evenodd"/><path fill="#595959" stroke="#595959" stroke-width="1.0" stroke-linecap="butt" d="m467.75354 326.16476l4.734253 0.95370483l-3.0136414 -3.7736816z" fill-rule="evenodd"/><path fill="#000000" fill-opacity="0.0" d="m695.32697 204.99106l-211.08664 122.11023" fill-rule="evenodd"/><path stroke="#595959" stroke-width="1.0" stroke-linejoin="round" stroke-linecap="butt" d="m695.32697 204.99106l-205.89304 119.105835" fill-rule="evenodd"/><path fill="#595959" stroke="#595959" stroke-width="1.0" stroke-linecap="butt" d="m488.60684 322.66714l-3.1011047 3.702118l4.7552795 -0.84265137z" fill-rule="evenodd"/><path fill="#000000" fill-opacity="0.0" d="m476.8819 193.54306l1.3858337 132.09448" fill-rule="evenodd"/><path stroke="#595959" stroke-width="1.0" stroke-linejoin="round" stroke-linecap="butt" d="m476.8819 193.54306l1.322876 126.09482" fill-rule="evenodd"/><path fill="#595959" stroke="#595959" stroke-width="1.0" stroke-linecap="butt" d="m476.55313 319.6552l1.6992493 4.520508l1.6040344 -4.555176z" fill-rule="evenodd"/></g></svg>